<svg xmlns="http://www.w3.org/2000/svg" viewBox="0 0 48 48" width="48" height="48">
  <defs>
    <linearGradient id="goldGradientIconLight" x1="0%" y1="0%" x2="100%" y2="100%">
      <stop offset="0%" style="stop-color:#B8860B;stop-opacity:1" />
      <stop offset="100%" style="stop-color:#8B4513;stop-opacity:1" />
    </linearGradient>
  </defs>

  <g transform="translate(24, 24)">
    <path d="M -18 -6 L 18 -6 L 18 6 L -18 6 Z" fill="#D4A843" stroke="none"/>
    <path d="M -6 -18 L 6 -18 L 6 -6 L -6 -6 Z" fill="url(#goldGradientIconLight)" stroke="none"/>
    <path d="M -6 -4 L -6 4 L 6 4 L 6 -4 Z" fill="url(#goldGradientIconLight)" stroke="none"/>
    <path d="M -6 6 L 6 6 L 6 18 L -6 18 Z" fill="url(#goldGradientIconLight)" stroke="none"/>
    <path d="M -18 -6 L -6 -6 L -6 6 L -18 6 Z" fill="#B8860B" stroke="none" opacity="0.25"/>
    <path d="M 6 -6 L 18 -6 L 18 6 L 6 6 Z" fill="#B8860B" stroke="none" opacity="0.25"/>
    <rect x="-6" y="-18" width="12" height="2" fill="#8B4513" opacity="0.35" rx="1"/>
  </g>

  <circle cx="40" cy="8" r="5" fill="#8B4513" opacity="0.9"/>
  <path d="M 40 5.5 L 40 10.5 M 37.5 8 L 42.5 8" stroke="#FAF8F5" stroke-width="1.2" stroke-linecap="round"/>
</svg>