<svg xmlns="http://www.w3.org/2000/svg" viewBox="0 0 270 56" width="270" height="56">
  <defs>
    <linearGradient id="goldGradientFullLight" x1="0%" y1="0%" x2="100%" y2="100%">
      <stop offset="0%" style="stop-color:#B8860B;stop-opacity:1" />
      <stop offset="100%" style="stop-color:#8B4513;stop-opacity:1" />
    </linearGradient>
    <style>
      .mft-text { font-family: Georgia, 'Times New Roman', serif; font-weight: 700; fill: #1b1b1f; }
      .plus-text { font-family: Georgia, 'Times New Roman', serif; font-weight: 400; fill: #8B4513; }
    </style>
  </defs>

  <g transform="translate(28, 28)">
    <path d="M -20 -7 L 20 -7 L 20 7 L -20 7 Z" fill="#D4A843" stroke="none"/>
    <path d="M -7 -20 L 7 -20 L 7 -7 L -7 -7 Z" fill="url(#goldGradientFullLight)" stroke="none"/>
    <path d="M -7 -5 L -7 5 L 7 5 L 7 -5 Z" fill="url(#goldGradientFullLight)" stroke="none"/>
    <path d="M -7 7 L 7 7 L 7 20 L -7 20 Z" fill="url(#goldGradientFullLight)" stroke="none"/>
    <path d="M -20 -7 L -7 -7 L -7 7 L -20 7 Z" fill="#B8860B" stroke="none" opacity="0.25"/>
    <path d="M 7 -7 L 20 -7 L 20 7 L 7 7 Z" fill="#B8860B" stroke="none" opacity="0.25"/>
    <rect x="-7" y="-20" width="14" height="2.5" fill="#8B4513" opacity="0.35" rx="1"/>
    <rect x="-7" y="-5" width="14" height="1.5" fill="#8B4513" opacity="0.2" rx="0.75"/>
  </g>

  <g transform="translate(60, 33)">
    <text x="0" y="0" class="mft-text" font-size="28">MFT</text>
    <text x="53" y="0" class="plus-text" font-size="28" letter-spacing="1">Plus</text>
    <g transform="translate(45, -4)">
      <circle r="3" fill="#8B4513" opacity="0.8"/>
      <path d="M 0 -1.2 L 0 1.2 M -1.2 0 L 1.2 0" stroke="#FAF8F5" stroke-width="0.6" stroke-linecap="round"/>
    </g>
  </g>
</svg>